<mxfile host="65bd71144e">
    <diagram id="bU2X9iAriUy0u5zFVEBx" name="Page-1">
        <mxGraphModel dx="1101" dy="745" grid="0" gridSize="10" guides="1" tooltips="1" connect="1" arrows="1" fold="1" page="1" pageScale="1" pageWidth="827" pageHeight="1169" math="0" shadow="0">
            <root>
                <mxCell id="0"/>
                <mxCell id="1" parent="0"/>
                <mxCell id="2" value="启动" style="rounded=1;whiteSpace=wrap;html=1;" vertex="1" parent="1">
                    <mxGeometry x="275" y="225" width="111" height="49" as="geometry"/>
                </mxCell>
                <mxCell id="5" value="等待" style="rounded=1;whiteSpace=wrap;html=1;" vertex="1" parent="1">
                    <mxGeometry x="275" y="289" width="111" height="49" as="geometry"/>
                </mxCell>
                <mxCell id="7" value="状态管理" style="rounded=1;whiteSpace=wrap;html=1;" vertex="1" parent="1">
                    <mxGeometry x="275" y="353" width="111" height="49" as="geometry"/>
                </mxCell>
                <mxCell id="8" value="路由处理" style="rounded=1;whiteSpace=wrap;html=1;" vertex="1" parent="1">
                    <mxGeometry x="275" y="417" width="111" height="49" as="geometry"/>
                </mxCell>
                <mxCell id="9" value="调度管理" style="rounded=1;whiteSpace=wrap;html=1;" vertex="1" parent="1">
                    <mxGeometry x="275" y="481" width="111" height="49" as="geometry"/>
                </mxCell>
                <mxCell id="10" value="数据上下传" style="rounded=1;whiteSpace=wrap;html=1;" vertex="1" parent="1">
                    <mxGeometry x="275" y="545" width="111" height="49" as="geometry"/>
                </mxCell>
                <mxCell id="11" value="" style="shape=curlyBracket;whiteSpace=wrap;html=1;rounded=1;labelPosition=left;verticalLabelPosition=middle;align=right;verticalAlign=middle;" vertex="1" parent="1">
                    <mxGeometry x="237" y="237" width="27" height="348" as="geometry"/>
                </mxCell>
                <mxCell id="12" value="server" style="ellipse;whiteSpace=wrap;html=1;" vertex="1" parent="1">
                    <mxGeometry x="121" y="382.5" width="110" height="57" as="geometry"/>
                </mxCell>
            </root>
        </mxGraphModel>
    </diagram>
</mxfile>